<svg width="1440" height="820" viewBox="0 0 1440 820" fill="none" xmlns="http://www.w3.org/2000/svg">
<g id="Desktop" clip-path="url(#clip0_61385:101)">
<circle id="degrad&#195;&#170;1" cx="881" cy="-137" r="559" transform="rotate(-180 881 -137)" fill="url(#paint0_radial_61385:101)"/>
<g id="degrad&#195;&#170;2" filter="url(#filter0_d_61385:101)">
<circle cx="618" cy="-213" r="559" transform="rotate(-180 618 -213)" fill="url(#paint1_radial_61385:101)" shape-rendering="crispEdges"/>
</g>
<rect id="retangle" x="541" y="140" width="358" height="540" fill="#202024"/>
<g id="mask">
<mask id="mask0_61385:101" style="mask-type:alpha" maskUnits="userSpaceOnUse" x="541" y="140" width="358" height="540">
<rect id="retangle_2" x="541" y="140" width="358" height="540" fill="#202024"/>
</mask>
<g mask="url(#mask0_61385:101)">
<g id="vetor">
<path id="Vector" d="M899 201.492V-256.824L719.5 -360L540 -256.824V201.492L719.5 304.674L899 201.492Z" fill="url(#paint2_linear_61385:101)"/>
<g id="vector" style="mix-blend-mode:luminosity" opacity="0.4">
<path id="Vector_2" d="M541.801 99.3496V202.159L631.101 253.569L720.4 202.159V99.3496L631.101 47.9399L541.801 99.3496Z" fill="url(#paint3_linear_61385:101)"/>
<path id="Vector_3" d="M541.801 -3.46505V99.3445L631.101 150.754L720.4 99.3445V-3.46505L631.101 -54.8747L541.801 -3.46505Z" fill="url(#paint4_linear_61385:101)"/>
<path id="Vector_4" d="M720.4 202.159V99.3492L809.7 47.9395L899 99.3492V202.159L809.7 253.568L720.4 202.159Z" fill="url(#paint5_linear_61385:101)"/>
<path id="Vector_5" d="M899 -3.46505V99.3445L809.7 150.754L720.4 99.3445V-3.46505L809.7 -54.8747L899 -3.46505Z" fill="url(#paint6_linear_61385:101)"/>
<path id="Vector_6" d="M809.7 253.59V150.781L720.4 99.3711L631.101 150.781V253.59L720.4 305L809.7 253.59Z" fill="url(#paint7_linear_61385:101)"/>
</g>
</g>
</g>
</g>
<g id="faixa" filter="url(#filter1_d_61385:101)">
<rect x="688" width="64" height="158" fill="url(#paint8_linear_61385:101)"/>
<rect x="688.5" y="0.5" width="63" height="157" stroke="black"/>
</g>
</g>
<defs>
<filter id="filter0_d_61385:101" x="55" y="-772" width="1126" height="1126" filterUnits="userSpaceOnUse" color-interpolation-filters="sRGB">
<feFlood flood-opacity="0" result="BackgroundImageFix"/>
<feColorMatrix in="SourceAlpha" type="matrix" values="0 0 0 0 0 0 0 0 0 0 0 0 0 0 0 0 0 0 127 0" result="hardAlpha"/>
<feOffset dy="4"/>
<feGaussianBlur stdDeviation="2"/>
<feComposite in2="hardAlpha" operator="out"/>
<feColorMatrix type="matrix" values="0 0 0 0 0 0 0 0 0 0 0 0 0 0 0 0 0 0 0.25 0"/>
<feBlend mode="normal" in2="BackgroundImageFix" result="effect1_dropShadow_61385:101"/>
<feBlend mode="normal" in="SourceGraphic" in2="effect1_dropShadow_61385:101" result="shape"/>
</filter>
<filter id="filter1_d_61385:101" x="684" y="0" width="72" height="166" filterUnits="userSpaceOnUse" color-interpolation-filters="sRGB">
<feFlood flood-opacity="0" result="BackgroundImageFix"/>
<feColorMatrix in="SourceAlpha" type="matrix" values="0 0 0 0 0 0 0 0 0 0 0 0 0 0 0 0 0 0 127 0" result="hardAlpha"/>
<feOffset dy="4"/>
<feGaussianBlur stdDeviation="2"/>
<feComposite in2="hardAlpha" operator="out"/>
<feColorMatrix type="matrix" values="0 0 0 0 0 0 0 0 0 0 0 0 0 0 0 0 0 0 0.25 0"/>
<feBlend mode="normal" in2="BackgroundImageFix" result="effect1_dropShadow_61385:101"/>
<feBlend mode="normal" in="SourceGraphic" in2="effect1_dropShadow_61385:101" result="shape"/>
</filter>
<radialGradient id="paint0_radial_61385:101" cx="0" cy="0" r="1" gradientUnits="userSpaceOnUse" gradientTransform="translate(881 -137) rotate(90) scale(559)">
<stop stop-color="#9E23FF" stop-opacity="0.7"/>
<stop offset="0.9999" stop-color="#1B0930" stop-opacity="0.046875"/>
<stop offset="1" stop-color="#121214"/>
</radialGradient>
<radialGradient id="paint1_radial_61385:101" cx="0" cy="0" r="1" gradientUnits="userSpaceOnUse" gradientTransform="translate(618 -213) rotate(90) scale(559)">
<stop stop-color="#FB12D9"/>
<stop offset="1" stop-color="#121214" stop-opacity="0"/>
</radialGradient>
<linearGradient id="paint2_linear_61385:101" x1="719.5" y1="-360" x2="719.5" y2="304.674" gradientUnits="userSpaceOnUse">
<stop stop-color="#3127A8"/>
<stop stop-color="#0B0007"/>
<stop offset="0.0001" stop-color="#FFD600"/>
<stop offset="0.0002" stop-color="#241A71"/>
<stop offset="0.0003" stop-color="#6A31B2"/>
<stop offset="0.0677083" stop-color="#3828A9"/>
<stop offset="0.682292" stop-color="#3127A8"/>
<stop offset="1" stop-color="#D944C7"/>
</linearGradient>
<linearGradient id="paint3_linear_61385:101" x1="631.101" y1="248.84" x2="542.185" y2="97.1039" gradientUnits="userSpaceOnUse">
<stop stop-color="#8257E5"/>
<stop offset="1" stop-color="#FF008E" stop-opacity="0"/>
</linearGradient>
<linearGradient id="paint4_linear_61385:101" x1="631.101" y1="146.026" x2="542.185" y2="-5.71074" gradientUnits="userSpaceOnUse">
<stop stop-color="#8257E5"/>
<stop offset="1" stop-color="#FF008E" stop-opacity="0"/>
</linearGradient>
<linearGradient id="paint5_linear_61385:101" x1="899" y1="207.937" x2="720.676" y2="100.328" gradientUnits="userSpaceOnUse">
<stop stop-color="#FF008E" stop-opacity="0"/>
<stop offset="1" stop-color="#FFCD1E"/>
</linearGradient>
<linearGradient id="paint6_linear_61385:101" x1="809.7" y1="146.026" x2="898.615" y2="-5.71073" gradientUnits="userSpaceOnUse">
<stop stop-color="#8257E5"/>
<stop offset="1" stop-color="#FF008E" stop-opacity="0"/>
</linearGradient>
<linearGradient id="paint7_linear_61385:101" x1="720.4" y1="104.099" x2="809.316" y2="255.836" gradientUnits="userSpaceOnUse">
<stop stop-color="#8257E5"/>
<stop offset="1" stop-color="#FF008E" stop-opacity="0"/>
</linearGradient>
<linearGradient id="paint8_linear_61385:101" x1="649.5" y1="4.93019e-08" x2="782" y2="158" gradientUnits="userSpaceOnUse">
<stop offset="0.255208" stop-color="#F483C9"/>
<stop offset="0.578125" stop-color="#9248DC"/>
</linearGradient>
<clipPath id="clip0_61385:101">
<rect width="1440" height="820" fill="white"/>
</clipPath>
</defs>
</svg>
